<svg xmlns="http://www.w3.org/2000/svg" viewBox="0 0 360 240" role="img" aria-labelledby="title desc">
  <title id="title">Analytics dashboard illustration</title>
  <desc id="desc">Charts and KPI cards</desc>
  <defs>
    <linearGradient id="bg" x1="0" x2="1" y1="0" y2="1">
      <stop offset="0" stop-color="#fdf4ff" />
      <stop offset="1" stop-color="#e0e7ff" />
    </linearGradient>
    <filter id="shadow" x="-10%" y="-10%" width="120%" height="120%" color-interpolation-filters="sRGB">
      <feDropShadow dx="0" dy="12" stdDeviation="14" flood-color="#7c3aed" flood-opacity="0.18" />
    </filter>
  </defs>
  <rect width="360" height="240" rx="26" fill="url(#bg)" />
  <g transform="translate(32 32)" filter="url(#shadow)">
    <rect width="296" height="176" rx="22" fill="#ffffff" opacity="0.92" />
    <rect x="24" y="26" width="96" height="54" rx="14" fill="#ede9fe" />
    <rect x="132" y="26" width="96" height="54" rx="14" fill="#d8b4fe" opacity="0.9" />
    <rect x="240" y="26" width="56" height="54" rx="14" fill="#c4b5fd" opacity="0.85" />
    <path
      d="M48 118c18-32 42-48 66-14s50 18 74-10 46-18 66 12"
      fill="none"
      stroke="#7c3aed"
      stroke-width="6"
      stroke-linecap="round"
      stroke-linejoin="round"
      opacity="0.65"
    />
    <path
      d="M50 146h196"
      stroke="#c4b5fd"
      stroke-width="10"
      stroke-linecap="round"
      opacity="0.45"
    />
    <rect x="210" y="110" width="58" height="34" rx="12" fill="#a855f7" opacity="0.85" />
    <rect x="210" y="154" width="86" height="14" rx="7" fill="#c4b5fd" opacity="0.6" />
  </g>
  <circle cx="96" cy="40" r="10" fill="#c4b5fd" opacity="0.6" />
  <circle cx="120" cy="40" r="6" fill="#f472b6" opacity="0.6" />
</svg>
