<svg xmlns="http://www.w3.org/2000/svg" viewBox="0 0 360 240" role="img" aria-labelledby="title desc">
  <title id="title">Input analysis illustration</title>
  <desc id="desc">Text area with AI suggestions</desc>
  <defs>
    <linearGradient id="bg" x1="0" x2="1" y1="0" y2="1">
      <stop offset="0" stop-color="#e0f2fe" />
      <stop offset="1" stop-color="#dbeafe" />
    </linearGradient>
    <filter id="shadow" x="-10%" y="-10%" width="120%" height="120%" color-interpolation-filters="sRGB">
      <feDropShadow dx="0" dy="12" stdDeviation="14" flood-color="#1d4ed8" flood-opacity="0.18" />
    </filter>
  </defs>
  <rect width="360" height="240" rx="26" fill="url(#bg)" />
  <g transform="translate(38 40)" filter="url(#shadow)">
    <rect width="284" height="160" rx="20" fill="#ffffff" opacity="0.92" />
    <rect x="24" y="26" width="150" height="18" rx="9" fill="#bae6fd" />
    <rect x="24" y="54" width="188" height="12" rx="6" fill="#cbd5f5" opacity="0.9" />
    <rect x="24" y="74" width="188" height="12" rx="6" fill="#cbd5f5" opacity="0.78" />
    <rect x="24" y="94" width="132" height="12" rx="6" fill="#cbd5f5" opacity="0.65" />
    <rect x="192" y="26" width="72" height="30" rx="12" fill="#2563eb" opacity="0.9" />
    <rect x="192" y="70" width="72" height="30" rx="12" fill="#38bdf8" opacity="0.9" />
    <rect x="192" y="114" width="72" height="30" rx="12" fill="#a855f7" opacity="0.85" />
    <circle cx="230" cy="42" r="6" fill="#bfdbfe" />
    <circle cx="230" cy="86" r="6" fill="#bae6fd" />
    <circle cx="230" cy="130" r="6" fill="#ede9fe" />
  </g>
  <path
    d="M120 32c8-10 24-18 46-18 22 0 38 8 46 18"
    stroke="#2563eb"
    stroke-width="4"
    stroke-linecap="round"
    fill="none"
    opacity="0.4"
  />
</svg>
