<svg xmlns="http://www.w3.org/2000/svg" viewBox="0 0 360 240" role="img" aria-labelledby="title desc">
  <title id="title">タスク起票</title>
  <desc id="desc">ノート入力から、AI のカード案・サブタスク提案をレビューして追加できる画面イメージ</desc>
  <defs>
    <linearGradient id="bg" x1="0" y1="0" x2="1" y2="1">
      <stop offset="0" stop-color="#e9efff" />
      <stop offset="1" stop-color="#f6f8ff" />
    </linearGradient>
    <filter id="shadow" x="-20%" y="-20%" width="140%" height="140%" color-interpolation-filters="sRGB">
      <feDropShadow dx="0" dy="14" stdDeviation="14" flood-color="#10203a" flood-opacity="0.16" />
    </filter>
    <clipPath id="windowClip">
      <rect x="28" y="28" width="304" height="184" rx="22" />
    </clipPath>
  </defs>

  <rect width="360" height="240" rx="26" fill="url(#bg)" />
  <circle cx="294" cy="56" r="116" fill="#0ea5e9" opacity="0.12" />
  <circle cx="74" cy="214" r="90" fill="#9333ea" opacity="0.06" />

  <g filter="url(#shadow)">
    <rect x="28" y="28" width="304" height="184" rx="22" fill="#ffffff" opacity="0.96" />
    <rect
      x="28"
      y="28"
      width="304"
      height="184"
      rx="22"
      fill="none"
      stroke="#93c5fd"
      stroke-opacity="0.35"
      stroke-width="1.2"
    />

    <g clip-path="url(#windowClip)">
      <!-- Header -->
      <rect x="28" y="28" width="304" height="32" fill="#f8fafc" />
      <rect x="28" y="59.5" width="304" height="1" fill="#e2e8f0" />

      <!-- Brand -->
      <rect x="42" y="38" width="18" height="18" rx="6" fill="#2563eb" opacity="0.92" />
      <rect x="66" y="40" width="50" height="6" rx="3" fill="#94a3b8" opacity="0.55" />
      <rect x="66" y="50" width="34" height="4" rx="2" fill="#94a3b8" opacity="0.38" />

      <!-- Nav -->
      <rect x="140" y="40" width="36" height="12" rx="6" fill="#2563eb" opacity="0.18" />
      <rect x="180" y="40" width="36" height="12" rx="6" fill="#94a3b8" opacity="0.28" />
      <rect x="220" y="40" width="36" height="12" rx="6" fill="#94a3b8" opacity="0.28" />
      <rect x="260" y="40" width="36" height="12" rx="6" fill="#94a3b8" opacity="0.28" />

      <!-- Left: note input -->
      <rect x="42" y="72" width="172" height="128" rx="14" fill="#f1f5f9" stroke="#e2e8f0" />
      <rect x="54" y="82" width="140" height="24" rx="12" fill="#ffffff" stroke="#e2e8f0" />
      <rect x="64" y="90" width="34" height="5" rx="2.5" fill="#94a3b8" opacity="0.34" />
      <rect x="104" y="86" width="44" height="16" rx="8" fill="#0ea5e9" opacity="0.18" />
      <rect x="152" y="86" width="42" height="16" rx="8" fill="#94a3b8" opacity="0.22" />
      <circle cx="112" cy="94" r="3" fill="#0ea5e9" opacity="0.7" />
      <circle cx="160" cy="94" r="3" fill="#94a3b8" opacity="0.55" />

      <rect x="54" y="112" width="140" height="76" rx="12" fill="#ffffff" stroke="#e2e8f0" />
      <rect x="64" y="124" width="108" height="6" rx="3" fill="#94a3b8" opacity="0.45" />
      <rect x="64" y="138" width="118" height="6" rx="3" fill="#94a3b8" opacity="0.32" />
      <rect x="64" y="152" width="96" height="6" rx="3" fill="#94a3b8" opacity="0.24" />
      <rect x="64" y="166" width="74" height="6" rx="3" fill="#94a3b8" opacity="0.2" />
      <rect x="176" y="124" width="8" height="36" rx="4" fill="#0ea5e9" opacity="0.22" />

      <!-- Right: AI proposals -->
      <rect x="226" y="72" width="92" height="128" rx="14" fill="#f1f5f9" stroke="#e2e8f0" />
      <rect x="238" y="84" width="46" height="14" rx="7" fill="#0ea5e9" opacity="0.18" />
      <path
        d="M246 90l2 4 4 2-4 2-2 4-2-4-4-2 4-2z"
        fill="#0ea5e9"
        opacity="0.75"
      />
      <rect x="238" y="104" width="68" height="64" rx="12" fill="#ffffff" stroke="#e2e8f0" />
      <rect x="246" y="114" width="46" height="5" rx="2.5" fill="#94a3b8" opacity="0.42" />

      <rect x="246" y="124" width="52" height="6" rx="3" fill="#e2e8f0" />
      <rect x="246" y="124" width="34" height="6" rx="3" fill="#0ea5e9" opacity="0.55" />

      <rect x="246" y="136" width="18" height="8" rx="4" fill="#0ea5e9" opacity="0.16" />
      <rect x="268" y="136" width="18" height="8" rx="4" fill="#9333ea" opacity="0.14" />

      <rect x="246" y="148" width="8" height="8" rx="2" fill="#0ea5e9" opacity="0.16" stroke="#0ea5e9" />
      <path
        d="M248.3 152l1.4 1.6 3.2-3.6"
        fill="none"
        stroke="#0ea5e9"
        stroke-width="1.6"
        stroke-linecap="round"
        stroke-linejoin="round"
        opacity="0.85"
      />
      <rect x="258" y="150" width="40" height="4" rx="2" fill="#94a3b8" opacity="0.28" />
      <rect x="246" y="160" width="8" height="8" rx="2" fill="#ffffff" stroke="#cbd5e1" />
      <rect x="258" y="162" width="34" height="4" rx="2" fill="#94a3b8" opacity="0.24" />

      <rect x="238" y="174" width="68" height="14" rx="7" fill="#0ea5e9" opacity="0.18" />
      <path
        d="M296 181h6m-3-3v6"
        fill="none"
        stroke="#0ea5e9"
        stroke-width="1.8"
        stroke-linecap="round"
        opacity="0.9"
      />

      <!-- Flow cue -->
      <path
        d="M206 146c10-4 12-10 20-10"
        fill="none"
        stroke="#0ea5e9"
        stroke-width="2.4"
        stroke-linecap="round"
        opacity="0.45"
      />
      <path
        d="M220 132l6 4-6 4"
        fill="none"
        stroke="#0ea5e9"
        stroke-width="2.4"
        stroke-linecap="round"
        stroke-linejoin="round"
        opacity="0.45"
      />
    </g>
  </g>
</svg>
