<svg xmlns="http://www.w3.org/2000/svg" viewBox="0 0 360 240" role="img" aria-labelledby="title desc">
  <title id="title">日報・週報解析</title>
  <desc id="desc">タグとセクションで入力し、AI がカード候補と振り返り観点を抽出する画面イメージ</desc>
  <defs>
    <linearGradient id="bg" x1="0" y1="0" x2="1" y2="1">
      <stop offset="0" stop-color="#e9efff" />
      <stop offset="1" stop-color="#f6f8ff" />
    </linearGradient>
    <filter id="shadow" x="-20%" y="-20%" width="140%" height="140%" color-interpolation-filters="sRGB">
      <feDropShadow dx="0" dy="14" stdDeviation="14" flood-color="#10203a" flood-opacity="0.16" />
    </filter>
    <clipPath id="windowClip">
      <rect x="28" y="28" width="304" height="184" rx="22" />
    </clipPath>
  </defs>

  <rect width="360" height="240" rx="26" fill="url(#bg)" />
  <circle cx="296" cy="54" r="118" fill="#06b6d4" opacity="0.12" />
  <circle cx="72" cy="214" r="90" fill="#2563eb" opacity="0.06" />

  <g filter="url(#shadow)">
    <rect x="28" y="28" width="304" height="184" rx="22" fill="#ffffff" opacity="0.96" />
    <rect
      x="28"
      y="28"
      width="304"
      height="184"
      rx="22"
      fill="none"
      stroke="#93c5fd"
      stroke-opacity="0.35"
      stroke-width="1.2"
    />

    <g clip-path="url(#windowClip)">
      <!-- Header -->
      <rect x="28" y="28" width="304" height="32" fill="#f8fafc" />
      <rect x="28" y="59.5" width="304" height="1" fill="#e2e8f0" />

      <!-- Brand -->
      <rect x="42" y="38" width="18" height="18" rx="6" fill="#2563eb" opacity="0.92" />
      <rect x="66" y="40" width="50" height="6" rx="3" fill="#94a3b8" opacity="0.55" />
      <rect x="66" y="50" width="34" height="4" rx="2" fill="#94a3b8" opacity="0.38" />

      <!-- Nav -->
      <rect x="140" y="40" width="36" height="12" rx="6" fill="#2563eb" opacity="0.18" />
      <rect x="180" y="40" width="36" height="12" rx="6" fill="#94a3b8" opacity="0.28" />
      <rect x="220" y="40" width="36" height="12" rx="6" fill="#94a3b8" opacity="0.28" />
      <rect x="260" y="40" width="36" height="12" rx="6" fill="#94a3b8" opacity="0.28" />

      <!-- Tags -->
      <rect x="42" y="72" width="62" height="14" rx="7" fill="#06b6d4" opacity="0.18" />
      <rect x="110" y="72" width="78" height="14" rx="7" fill="#2563eb" opacity="0.12" />
      <rect x="194" y="72" width="44" height="14" rx="7" fill="#22c55e" opacity="0.12" />

      <!-- Date / range -->
      <rect x="246" y="72" width="72" height="14" rx="7" fill="#2563eb" opacity="0.08" />
      <rect
        x="252"
        y="75"
        width="10"
        height="10"
        rx="2"
        fill="none"
        stroke="#2563eb"
        stroke-width="1.4"
        opacity="0.55"
      />
      <path
        d="M254 74v3m6-3v3"
        fill="none"
        stroke="#2563eb"
        stroke-width="1.4"
        stroke-linecap="round"
        opacity="0.55"
      />
      <rect x="266" y="77" width="46" height="4" rx="2" fill="#94a3b8" opacity="0.22" />

      <!-- Left: report sections (accordion-like) -->
      <rect x="42" y="96" width="186" height="32" rx="14" fill="#ffffff" stroke="#e2e8f0" />
      <rect x="42" y="96" width="6" height="32" rx="3" fill="#06b6d4" opacity="0.65" />
      <circle cx="58" cy="112" r="6" fill="#06b6d4" opacity="0.16" />
      <path
        d="M56.5 112l1.4 1.6 3.2-3.6"
        fill="none"
        stroke="#06b6d4"
        stroke-width="1.6"
        stroke-linecap="round"
        stroke-linejoin="round"
        opacity="0.8"
      />
      <rect x="70" y="108" width="62" height="5" rx="2.5" fill="#94a3b8" opacity="0.34" />
      <rect x="70" y="118" width="132" height="4" rx="2" fill="#94a3b8" opacity="0.22" />
      <path
        d="M214 110l6 6-6 6"
        fill="none"
        stroke="#94a3b8"
        stroke-width="1.8"
        stroke-linecap="round"
        stroke-linejoin="round"
        opacity="0.35"
      />

      <rect x="42" y="132" width="186" height="32" rx="14" fill="#ffffff" stroke="#e2e8f0" />
      <rect x="42" y="132" width="6" height="32" rx="3" fill="#2563eb" opacity="0.55" />
      <circle cx="58" cy="148" r="6" fill="#2563eb" opacity="0.14" />
      <path
        d="M55.5 148h5"
        fill="none"
        stroke="#2563eb"
        stroke-width="1.8"
        stroke-linecap="round"
        opacity="0.75"
      />
      <rect x="70" y="144" width="70" height="5" rx="2.5" fill="#94a3b8" opacity="0.32" />
      <rect x="70" y="154" width="124" height="4" rx="2" fill="#94a3b8" opacity="0.22" />
      <path
        d="M214 146l6 6-6 6"
        fill="none"
        stroke="#94a3b8"
        stroke-width="1.8"
        stroke-linecap="round"
        stroke-linejoin="round"
        opacity="0.35"
      />

      <rect x="42" y="168" width="186" height="32" rx="14" fill="#ffffff" stroke="#e2e8f0" />
      <rect x="42" y="168" width="6" height="32" rx="3" fill="#9333ea" opacity="0.5" />
      <circle cx="58" cy="184" r="6" fill="#9333ea" opacity="0.12" />
      <path
        d="M56 184h4m-2-2v4"
        fill="none"
        stroke="#9333ea"
        stroke-width="1.6"
        stroke-linecap="round"
        opacity="0.8"
      />
      <rect x="70" y="180" width="64" height="5" rx="2.5" fill="#94a3b8" opacity="0.3" />
      <rect x="70" y="190" width="112" height="4" rx="2" fill="#94a3b8" opacity="0.2" />
      <path
        d="M214 182l6 6-6 6"
        fill="none"
        stroke="#94a3b8"
        stroke-width="1.8"
        stroke-linecap="round"
        stroke-linejoin="round"
        opacity="0.35"
      />

      <!-- Right: analysis results -->
      <rect x="238" y="96" width="80" height="104" rx="14" fill="#f1f5f9" stroke="#e2e8f0" />
      <rect x="246" y="104" width="64" height="12" rx="6" fill="#06b6d4" opacity="0.16" />
      <path
        d="M256 106l4 4-4 4"
        fill="none"
        stroke="#06b6d4"
        stroke-width="2"
        stroke-linecap="round"
        stroke-linejoin="round"
        opacity="0.8"
      />
      <rect x="266" y="108" width="36" height="4" rx="2" fill="#94a3b8" opacity="0.22" />

      <rect x="246" y="120" width="64" height="30" rx="12" fill="#ffffff" stroke="#e2e8f0" />
      <circle cx="254" cy="132" r="5" fill="#06b6d4" opacity="0.18" />
      <path
        d="M252.5 132h3m-1.5-1.5v3"
        fill="none"
        stroke="#06b6d4"
        stroke-width="1.6"
        stroke-linecap="round"
        opacity="0.85"
      />
      <rect x="262" y="130" width="40" height="4" rx="2" fill="#94a3b8" opacity="0.28" />
      <circle cx="254" cy="144" r="5" fill="#2563eb" opacity="0.14" />
      <path
        d="M252.5 144h3m-1.5-1.5v3"
        fill="none"
        stroke="#2563eb"
        stroke-width="1.6"
        stroke-linecap="round"
        opacity="0.8"
      />
      <rect x="262" y="142" width="32" height="4" rx="2" fill="#94a3b8" opacity="0.24" />

      <rect x="246" y="154" width="64" height="34" rx="12" fill="#ffffff" stroke="#e2e8f0" />
      <circle cx="254" cy="166" r="5" fill="#9333ea" opacity="0.14" />
      <path
        d="M253.2 164.8c.8-1.1 2.8-1.1 2.8.4 0 1.2-1.6 1.2-1.6 2.2m1.6 2.8h0"
        fill="none"
        stroke="#9333ea"
        stroke-width="1.4"
        stroke-linecap="round"
        stroke-linejoin="round"
        opacity="0.8"
      />
      <rect x="262" y="164" width="40" height="4" rx="2" fill="#94a3b8" opacity="0.24" />
      <circle cx="254" cy="178" r="5" fill="#9333ea" opacity="0.1" />
      <rect x="262" y="176" width="34" height="4" rx="2" fill="#94a3b8" opacity="0.2" />

      <!-- History hint -->
      <circle cx="252" cy="196" r="5" fill="#94a3b8" opacity="0.14" />
      <path
        d="M252 193.8v2.6l1.8 1.2"
        fill="none"
        stroke="#94a3b8"
        stroke-width="1.4"
        stroke-linecap="round"
        stroke-linejoin="round"
        opacity="0.4"
      />
      <rect x="262" y="194" width="42" height="4" rx="2" fill="#94a3b8" opacity="0.18" />
    </g>
  </g>
</svg>
