<svg xmlns="http://www.w3.org/2000/svg" viewBox="0 0 360 240" role="img" aria-labelledby="title desc">
  <title id="title">Workspace settings illustration</title>
  <desc id="desc">Form fields and sliders</desc>
  <defs>
    <linearGradient id="bg" x1="0" x2="1" y1="0" y2="1">
      <stop offset="0" stop-color="#dcfce7" />
      <stop offset="1" stop-color="#bae6fd" />
    </linearGradient>
    <filter id="shadow" x="-10%" y="-10%" width="120%" height="120%" color-interpolation-filters="sRGB">
      <feDropShadow dx="0" dy="12" stdDeviation="14" flood-color="#16a34a" flood-opacity="0.16" />
    </filter>
  </defs>
  <rect width="360" height="240" rx="26" fill="url(#bg)" />
  <g transform="translate(40 36)" filter="url(#shadow)">
    <rect width="280" height="168" rx="20" fill="#ffffff" opacity="0.94" />
    <rect x="28" y="28" width="108" height="16" rx="8" fill="#bbf7d0" />
    <rect x="28" y="56" width="196" height="12" rx="6" fill="#d1fae5" opacity="0.85" />
    <rect x="28" y="78" width="156" height="12" rx="6" fill="#d1fae5" opacity="0.75" />
    <rect x="28" y="120" width="204" height="40" rx="14" fill="#fef9c3" opacity="0.9" />
    <rect x="28" y="170" width="96" height="10" rx="5" fill="#a7f3d0" opacity="0.8" />
    <circle cx="82" cy="170" r="10" fill="#34d399" />
    <rect x="172" y="28" width="84" height="28" rx="12" fill="#2dd4bf" opacity="0.9" />
    <rect x="172" y="66" width="84" height="28" rx="12" fill="#22d3ee" opacity="0.85" />
  </g>
  <path
    d="M96 32l12-12 12 12M108 20v22"
    stroke="#10b981"
    stroke-width="3"
    stroke-linecap="round"
    stroke-linejoin="round"
    fill="none"
    opacity="0.6"
  />
</svg>
